<svg xmlns="http://www.w3.org/2000/svg" viewBox="0 0 119.51 27.76"><defs><style>.cls-1{fill:#a52632;}</style></defs><g id="Layer_2" data-name="Layer 2"><g id="Layer_1-2" data-name="Layer 1"><path class="cls-1" d="M10.22,26.54a.64.64,0,0,0,.19.07c.53.17,1.05.32,1.57.44a.63.63,0,0,0,.2,0h0a.55.55,0,0,0,.54-.55V23.47a.86.86,0,0,0-.59-.82h-.05a15.49,15.49,0,0,1-1.58-.56l-.08,0a.48.48,0,0,0-.18,0,.55.55,0,0,0-.54.55v3.18a.87.87,0,0,0,.45.79"/><path class="cls-1" d="M13.36,4.6a.68.68,0,0,1,.69.66l0,21.59a.86.86,0,0,0,.82.88c.43,0,.77,0,1.12,0a18.74,18.74,0,0,0,2.37-.15c7.91-1,13.88-6.89,13.88-13.74,0-4.66-2.72-9-7.28-11.57l-.07,0a.8.8,0,0,0-.34-.07.77.77,0,0,0-.77.73V6a1.16,1.16,0,0,0,.37.79,1.49,1.49,0,0,0,.2.15,8.69,8.69,0,0,1,3.68,6.89c0,4.37-3.67,8.17-8.94,9.26a.83.83,0,0,1-.22,0,.66.66,0,0,1-.68-.65l0-21.6A.89.89,0,0,0,17.36,0a11,11,0,0,0-1.12,0,18.74,18.74,0,0,0-2.37.15C6,1.13,0,7,0,13.89c0,4.66,2.72,9,7.27,11.57l.08.05a1.18,1.18,0,0,0,.41.12.76.76,0,0,0,.69-.78V21.72a1.16,1.16,0,0,0-.37-.79.9.9,0,0,0-.19-.15A8.69,8.69,0,0,1,4.2,13.89c0-4.37,3.68-8.17,8.94-9.26l.22,0"/><path class="cls-1" d="M20.07.17a.56.56,0,0,0-.58.55V3.79a.85.85,0,0,0,.59.82h.06a16,16,0,0,1,1.56.56l.08,0a.57.57,0,0,0,.18,0,.55.55,0,0,0,.55-.55V1.54a.9.9,0,0,0-.45-.81l0,0L21.82.65c-.52-.17-1-.31-1.57-.43a.83.83,0,0,0-.18,0"/><path class="cls-1" d="M43,4.09a.18.18,0,0,0-.16-.1h-1.1a.19.19,0,0,0-.17.1L36.86,14.53a.19.19,0,0,0,0,.18.19.19,0,0,0,.15.08h1.2a.18.18,0,0,0,.17-.11L42.28,6l2.08,4.66H41.25a.16.16,0,0,0-.16.1l-.53,1a.2.2,0,0,0,0,.17.18.18,0,0,0,.16.09H45l1.16,2.63a.18.18,0,0,0,.17.11h1.26a.18.18,0,0,0,.15-.08.17.17,0,0,0,0-.18"/><path class="cls-1" d="M67.81,4.09a.19.19,0,0,0-.17-.1H66.55a.19.19,0,0,0-.17.1L61.66,14.53a.19.19,0,0,0,0,.18.18.18,0,0,0,.15.08H63a.18.18,0,0,0,.17-.11L67.08,6l2.07,4.66h-3.1a.16.16,0,0,0-.16.1l-.53,1a.17.17,0,0,0,0,.17.17.17,0,0,0,.16.09h4.25l1.16,2.63a.18.18,0,0,0,.17.11h1.26a.18.18,0,0,0,.15-.08.19.19,0,0,0,0-.18"/><path class="cls-1" d="M58.88,4.06H57.74a.18.18,0,0,0-.18.18V12L51.35,4.13a.16.16,0,0,0-.14-.07h-1.1a.18.18,0,0,0-.18.18V14.61a.18.18,0,0,0,.18.18h1.14a.18.18,0,0,0,.18-.18v-8l6.37,8.09a.21.21,0,0,0,.15.07h.93a.18.18,0,0,0,.18-.18V4.24a.18.18,0,0,0-.18-.18"/><path class="cls-1" d="M76.59,13.34V5.5h2.24A3.86,3.86,0,0,1,83,9.45a3.83,3.83,0,0,1-4.12,3.89m-3.59,1.45h3.59a5.36,5.36,0,0,0,5.69-5.4c0-3.09-2.39-5.33-5.69-5.33H75.24a.19.19,0,0,0-.19.18V14.61a.19.19,0,0,0,.19.18"/><path class="cls-1" d="M92.52,13.52a3.92,3.92,0,0,1-3.9-4.13,3.89,3.89,0,1,1,7.78,0v0a3.89,3.89,0,0,1-3.88,4.07m0-9.64A5.46,5.46,0,0,0,87,9.42v0A5.36,5.36,0,0,0,92.49,15,5.46,5.46,0,0,0,98,9.39a5.36,5.36,0,0,0-5.45-5.51"/><path class="cls-1" d="M101.13,14.79h7a.19.19,0,0,0,.19-.18V13.53a.2.2,0,0,0-.19-.19h-5.65V4.24a.18.18,0,0,0-.18-.18h-1.17a.18.18,0,0,0-.18.18V14.61a.18.18,0,0,0,.18.18"/><path class="cls-1" d="M119.33,4.06h-1.17a.18.18,0,0,0-.18.18v6c0,2.09-1,3.24-2.94,3.24s-3-1.21-3-3.32V4.24a.18.18,0,0,0-.18-.18H110.7a.18.18,0,0,0-.18.18v6c0,2.89,1.72,4.68,4.49,4.68s4.5-1.78,4.5-4.77V4.24a.18.18,0,0,0-.18-.18"/><path class="cls-1" d="M44.25,18a.18.18,0,0,0,.18-.19v-.33a.18.18,0,0,0-.18-.19H44a.18.18,0,0,0-.18.19v.33A.18.18,0,0,0,44,18"/><path class="cls-1" d="M42.57,18a.19.19,0,0,0,.19-.19v-.33a.19.19,0,0,0-.19-.19h-.25a.19.19,0,0,0-.19.19v.33a.19.19,0,0,0,.19.19"/><path class="cls-1" d="M45.2,18.54h-.15a.18.18,0,0,0-.18.18v2.66c0,1.19-.56,1.85-1.58,1.85s-1.6-.68-1.6-1.86V18.72a.18.18,0,0,0-.18-.18h-.15a.18.18,0,0,0-.18.18v2.65c0,1.48.79,2.36,2.1,2.36s2.1-.88,2.1-2.36V18.72a.18.18,0,0,0-.18-.18"/><path class="cls-1" d="M52.86,18.54h-.14a.18.18,0,0,0-.18.18v4l-3.29-4.1a.17.17,0,0,0-.14-.07H49a.18.18,0,0,0-.18.18v4.75a.18.18,0,0,0,.18.18h.14a.18.18,0,0,0,.19-.18v-4l3.28,4.1a.18.18,0,0,0,.14.06h.13a.18.18,0,0,0,.18-.18V18.72a.18.18,0,0,0-.18-.18"/><path class="cls-1" d="M57,17.63h-.26a.18.18,0,0,0-.18.19v.33a.19.19,0,0,0,.18.19H57a.19.19,0,0,0,.18-.19v-.33a.18.18,0,0,0-.18-.19"/><path class="cls-1" d="M56.91,18.91h-.15a.18.18,0,0,0-.18.18v4.38a.18.18,0,0,0,.18.18h.15a.19.19,0,0,0,.19-.18V19.09a.19.19,0,0,0-.19-.18"/><path class="cls-1" d="M64.79,18.54h-.16a.16.16,0,0,0-.16.11l-1.89,4.2-1.89-4.2a.18.18,0,0,0-.17-.11h-.16a.18.18,0,0,0-.15.08.19.19,0,0,0,0,.18l2.16,4.78a.18.18,0,0,0,.17.11h.11a.18.18,0,0,0,.17-.11L65,18.8a.19.19,0,0,0,0-.18.18.18,0,0,0-.15-.08"/><path class="cls-1" d="M71.54,23.15h-3V21.33h2.69a.19.19,0,0,0,.19-.18V21a.2.2,0,0,0-.19-.19H68.52V19h3a.18.18,0,0,0,.18-.18v-.14a.18.18,0,0,0-.18-.18H68.19a.18.18,0,0,0-.18.18v4.75a.18.18,0,0,0,.18.18h3.35a.18.18,0,0,0,.18-.18v-.13a.19.19,0,0,0-.18-.19"/><path class="cls-1" d="M77.54,21.54a1.5,1.5,0,0,0,1.4-1.49,1.43,1.43,0,0,0-.39-1,2.07,2.07,0,0,0-1.5-.5H75.12a.19.19,0,0,0-.19.18v4.75a.19.19,0,0,0,.19.18h.14a.19.19,0,0,0,.19-.18V19H77c.88,0,1.39.37,1.39,1s-.54,1-1.45,1h0a.18.18,0,0,0-.16.09.18.18,0,0,0,0,.19l1.68,2.21a.15.15,0,0,0,.14.07h.19a.19.19,0,0,0,.16-.1.19.19,0,0,0,0-.19"/><path class="cls-1" d="M84.06,20.82c-1.17-.24-1.39-.52-1.39-1s.45-.89,1.2-.89a2.35,2.35,0,0,1,1.43.5.18.18,0,0,0,.25,0l.1-.12a.16.16,0,0,0,0-.13.14.14,0,0,0-.07-.12,2.8,2.8,0,0,0-1.72-.59,1.58,1.58,0,0,0-1.73,1.41c0,.94.85,1.24,1.77,1.43,1.18.24,1.4.52,1.4,1s-.52.93-1.27.93a2.32,2.32,0,0,1-1.66-.68.17.17,0,0,0-.25,0l-.11.11a.17.17,0,0,0,0,.26,2.86,2.86,0,0,0,2,.81c1.07,0,1.81-.59,1.81-1.46s-.52-1.18-1.79-1.44"/><path class="cls-1" d="M89.52,17.63h-.26a.18.18,0,0,0-.18.19v.33a.19.19,0,0,0,.18.19h.26a.19.19,0,0,0,.18-.19v-.33a.18.18,0,0,0-.18-.19"/><path class="cls-1" d="M89.46,18.91h-.14a.18.18,0,0,0-.19.18v4.38a.18.18,0,0,0,.19.18h.14a.19.19,0,0,0,.19-.18V19.09a.19.19,0,0,0-.19-.18"/><path class="cls-1" d="M96.42,18.54H92.84a.18.18,0,0,0-.18.18v.14a.18.18,0,0,0,.18.18h1.54v4.43a.18.18,0,0,0,.18.18h.15a.18.18,0,0,0,.18-.18V19h1.53a.18.18,0,0,0,.18-.18v-.14a.18.18,0,0,0-.18-.18"/><path class="cls-1" d="M103.11,23.15h-3V21.33h2.69a.18.18,0,0,0,.18-.18V21a.19.19,0,0,0-.18-.19h-2.69V19h3a.19.19,0,0,0,.19-.18v-.14a.19.19,0,0,0-.19-.18H99.76a.18.18,0,0,0-.18.18v4.75a.18.18,0,0,0,.18.18h3.35a.18.18,0,0,0,.18-.18v-.13a.19.19,0,0,0-.18-.19"/><path class="cls-1" d="M108.24,20.82c-1.17-.24-1.39-.52-1.39-1s.45-.89,1.2-.89a2.35,2.35,0,0,1,1.43.5.18.18,0,0,0,.25,0l.09-.12a.17.17,0,0,0,0-.13.16.16,0,0,0-.07-.12,2.82,2.82,0,0,0-1.72-.59,1.58,1.58,0,0,0-1.73,1.41c0,.94.85,1.24,1.76,1.43,1.19.24,1.41.52,1.41,1s-.52.93-1.27.93a2.32,2.32,0,0,1-1.66-.68.19.19,0,0,0-.26,0l-.1.11a.17.17,0,0,0,0,.26,2.86,2.86,0,0,0,2,.81c1.06,0,1.81-.59,1.81-1.46s-.52-1.18-1.79-1.44"/><path class="cls-1" d="M113.7,17.63h-.26a.18.18,0,0,0-.18.19v.33a.19.19,0,0,0,.18.19h.26a.19.19,0,0,0,.18-.19v-.33a.18.18,0,0,0-.18-.19"/><path class="cls-1" d="M113.64,18.91h-.15a.18.18,0,0,0-.18.18v4.38a.18.18,0,0,0,.18.18h.15a.18.18,0,0,0,.18-.18V19.09a.18.18,0,0,0-.18-.18"/></g></g></svg>